<svg width="70" height="56" viewBox="0 0 70 56" fill="none" xmlns="http://www.w3.org/2000/svg">
<path fill-rule="evenodd" clip-rule="evenodd" d="M32.5722 35.2161C32.5928 34.9826 32.5996 34.8316 32.5996 34.7904C32.6065 34.4745 32.4348 34.1792 32.1532 34.0349L32.1408 34.0286C31.7137 33.8115 30.6687 33.2803 29.8527 33.3619C29.6398 32.5447 29.523 31.5627 29.5093 30.8897C31.0064 29.008 32.2082 26.7486 32.9705 24.4824C34.9345 23.4248 35.8617 21.5568 35.5732 19.1738C35.5183 18.7 35.2848 18.2742 34.9346 17.9652C35.2711 15.8088 36.205 7.49922 31.185 4.80033C30.3609 3.06287 28.8706 1.68939 27.0714 1.00951C25.2927 0.343372 23.4179 0 21.495 0H21.4813H21.4675C19.5447 0 17.6699 0.336504 15.8912 1.00951C14.0851 1.68939 12.6017 3.056 11.7776 4.80033C6.75754 7.49922 7.69151 15.8088 8.02802 17.9652C7.67778 18.2742 7.44428 18.7 7.38248 19.1807C7.09404 21.5568 8.01426 23.4248 9.96461 24.4824C10.72 26.7417 11.915 28.9943 13.4052 30.8759C13.3983 31.5489 13.2816 32.5447 13.0618 33.3688C12.2458 33.2872 11.2008 33.8184 10.7737 34.0355L10.7612 34.0418C10.4797 34.186 10.308 34.4813 10.3149 34.7972C10.3149 34.8316 10.3217 34.9895 10.3423 35.223C7.12151 36.0265 2.12203 38.2859 0.46698 44.652C0.151078 45.8606 0 47.1929 0 48.7312V54.0741C0 54.5273 0.370828 54.8982 0.824078 54.8982C1.27733 54.8982 1.64818 54.5273 1.64818 54.0741V48.7312C1.64818 47.3371 1.78553 46.1422 2.06023 45.0709C3.43371 39.8036 7.34813 37.6884 10.6376 36.8574C11.2008 39.0962 12.7391 42.5574 16.9969 44.1438C17.093 44.1781 17.1891 44.1987 17.2853 44.1987C17.4364 44.1987 17.5806 44.1507 17.7111 44.0751L19.167 45.2838C19.1896 45.3019 19.2183 45.3171 19.245 45.3312L19.2451 45.3312C19.2588 45.3385 19.2721 45.3455 19.2837 45.3525L17.7523 51.3546C17.6905 51.6087 17.7454 51.8765 17.9102 52.0757L20.7259 55.5643C20.8907 55.7635 21.1242 55.8733 21.3645 55.8733C21.3783 55.8733 21.392 55.8699 21.4057 55.8665C21.4147 55.8642 21.4236 55.862 21.4326 55.8607C21.4374 55.86 21.4421 55.8596 21.4469 55.8596C21.4607 55.8596 21.4744 55.863 21.4881 55.8665C21.5019 55.8699 21.5156 55.8733 21.5293 55.8733C21.7697 55.8733 22.0101 55.7703 22.168 55.5643L24.9837 52.0757C25.1485 51.8765 25.2034 51.6087 25.1416 51.3546L23.6102 45.3525C23.6514 45.3318 23.6926 45.3112 23.7269 45.2838L25.1828 44.0751C25.3133 44.1575 25.4575 44.1987 25.6086 44.1987C25.7047 44.1987 25.8009 44.185 25.897 44.1438C30.1548 42.5574 31.6931 39.0962 32.2563 36.8574C34.2742 37.3672 36.5272 38.3602 38.2846 40.2676C37.7512 40.4464 37.2469 40.662 36.8021 40.9318C34.2817 42.4564 32.9632 45.8695 32.9632 48.4517V53.8632C32.9632 54.3164 33.334 54.6873 33.7873 54.6873C34.2405 54.6873 34.6114 54.3164 34.6114 53.8632V48.4517C34.6114 46.0206 35.9162 43.3904 37.6536 42.3397C38.1239 42.0562 38.7196 41.8392 39.3634 41.6618C39.9809 42.6182 40.4878 43.7446 40.8337 45.0709C41.1152 46.1422 41.2457 47.344 41.2457 48.7312V54.0741C41.2457 54.5273 41.6165 54.8982 42.0698 54.8982C42.523 54.8982 42.8939 54.5273 42.8939 54.0741V48.7312C42.8939 47.1998 42.7428 45.8606 42.4269 44.652C42.0971 43.3673 41.6303 42.2497 41.0687 41.2773C41.2554 41.2411 41.4407 41.2063 41.623 41.1722C42.2411 41.0554 42.8111 40.9456 43.3124 40.8151C43.9579 43.0401 46.1074 48.6027 51.4846 48.6027C56.8618 48.6027 59.0182 43.0333 59.6568 40.8082C60.0507 40.9107 60.4869 40.9963 60.9556 41.0882L60.9556 41.0882L60.9584 41.0887L60.9623 41.0895C61.088 41.1142 61.2161 41.1393 61.3462 41.1653C62.7334 41.4263 64.3129 41.7285 65.3087 42.3328C67.0462 43.3835 68.351 46.0137 68.351 48.4448V53.8563C68.351 54.3096 68.7218 54.6804 69.1751 54.6804C69.6283 54.6804 69.9992 54.3096 69.9992 53.8563V48.4448C70.0335 45.8626 68.715 42.4495 66.1946 40.925C64.9379 40.1627 63.2073 39.833 61.6827 39.5446L61.5851 39.526C60.7218 39.3614 59.9134 39.2073 59.4302 39.0021C59.2929 38.9266 59.1761 38.8579 59.0937 38.7892C58.7091 38.4939 58.4276 37.9445 58.201 37.3196C58.8465 37.3745 59.492 37.4157 60.1101 37.4157C63.6374 37.4157 66.4719 36.5975 66.7185 36.5263L66.7303 36.523C67.0118 36.4405 67.2247 36.207 67.2934 35.9255C67.3621 35.6439 67.2728 35.3418 67.0599 35.1357C64.8998 33.0717 65.6704 29.1999 66.2334 26.3716L66.2358 26.3592L66.3182 25.9403C66.4556 25.2466 66.6685 23.9418 66.7509 23.1796C66.7563 23.1416 66.7489 23.1038 66.7422 23.0692L66.7393 23.0542L66.7372 23.0422C67.2522 21.7649 67.1286 20.4807 66.9844 19.7527C66.9363 19.4986 66.8333 19.2651 66.696 19.0591C66.696 19.042 66.6995 19.0248 66.7032 19.0072C66.7083 18.9824 66.7137 18.9567 66.7097 18.9286C66.5243 16.9783 66.0847 15.0897 65.4049 13.3248C61.5454 3.31898 52.4323 4.07439 51.6082 4.17054C50.791 4.07439 41.6711 3.31898 37.8116 13.3248C37.1317 15.0897 36.6922 16.9783 36.5068 18.9286V18.9355C36.3282 19.169 36.1909 19.4437 36.1291 19.7527C35.9848 20.4807 35.8887 21.5863 36.2527 22.6988C36.3145 22.8843 36.39 23.0697 36.4656 23.2414C36.5548 24.0036 36.7471 25.1917 36.8776 25.851L36.96 26.2699L36.9625 26.2823C37.5254 29.1106 38.296 32.9824 36.1428 35.0465C35.9299 35.2456 35.8406 35.5478 35.9093 35.8362C35.978 36.1246 36.1909 36.3513 36.4724 36.4337L36.4861 36.4376C36.7452 36.5126 39.5806 37.3333 43.0858 37.3333C43.6489 37.3333 44.2326 37.299 44.8232 37.2509C44.5966 37.9033 44.3082 38.487 43.903 38.7961C43.8137 38.8647 43.697 38.9334 43.5665 39.009C43.0833 39.2141 42.2749 39.3683 41.4117 39.5328L41.4116 39.5329L41.4115 39.5329L41.314 39.5515C40.9068 39.6285 40.4849 39.7085 40.0613 39.7989C37.8374 37.0107 34.785 35.7682 32.5722 35.2161ZM21.4607 39.0894C17.6287 39.0825 15.28 36.1158 14.3666 34.6736C14.6276 34.0418 14.7993 33.2589 14.9092 32.5241C16.8183 34.3577 19.0708 35.5595 21.4675 35.5595C23.8574 35.5595 26.1031 34.3646 28.0053 32.5378C28.1152 33.2727 28.2869 34.0418 28.5478 34.6736C27.6413 36.1226 25.3064 39.0825 21.4607 39.0894ZM12.7597 6.14634C12.9382 6.05707 13.0824 5.91285 13.1648 5.72743C13.7829 4.27154 14.9916 3.11094 16.4681 2.55468C18.0613 1.95722 19.737 1.65505 21.4607 1.65505H21.4744H21.4881C23.2119 1.65505 24.8875 1.95722 26.4808 2.55468C27.9641 3.11094 29.1659 4.26467 29.784 5.72743C29.8664 5.91285 30.0037 6.06393 30.1892 6.14634C34.3165 8.11042 33.6297 15.3487 33.3207 17.5257C33.2795 17.5325 33.2383 17.5394 33.1971 17.5531C32.5516 16.7634 32.064 15.8225 31.803 14.7787C31.5489 13.7554 31.0407 12.2515 30.0656 10.8917C29.8115 10.5415 29.3239 10.4453 28.953 10.6788C26.4692 12.2501 22.5662 11.3534 19.4291 10.6326L19.4211 10.6308C16.3582 9.92342 13.9408 9.36716 12.8421 10.8917C12.0592 11.9768 11.4754 13.2885 11.1046 14.7787C10.8505 15.8157 10.3629 16.7565 9.71739 17.5463C9.70021 17.5428 9.68475 17.5394 9.66928 17.536C9.65384 17.5325 9.6384 17.5291 9.62124 17.5257C9.31907 15.3624 8.63234 8.11729 12.7597 6.14634ZM10.9879 23.1501C9.4633 22.4359 8.79716 21.1654 9.01005 19.3799C9.02379 19.2563 9.09931 19.2013 9.14739 19.1738C9.20233 19.1464 9.28475 19.1258 9.3809 19.1738L9.60064 19.2837C9.95774 19.4623 10.3698 19.3455 10.6102 19.0434C10.6205 19.0356 10.6308 19.0288 10.6408 19.0223C10.6573 19.0114 10.6729 19.0013 10.6857 18.9884C11.654 17.9446 12.3545 16.6329 12.7116 15.1907C12.9313 14.3048 13.364 13.0138 14.1881 11.8738C14.6482 11.242 17.093 11.8051 19.0571 12.2583L19.0942 12.2668C22.2669 12.9932 26.1422 13.8805 29.1247 12.485C29.6947 13.4601 30.0243 14.4697 30.2029 15.1976C30.56 16.6398 31.2605 17.9514 32.2288 18.9953C32.2444 19.0109 32.2622 19.0221 32.281 19.0338C32.2952 19.0428 32.3101 19.0521 32.3249 19.064C32.5653 19.3593 32.9705 19.476 33.3276 19.2975L33.5611 19.1807C33.6572 19.1326 33.7396 19.1532 33.7946 19.1807C33.8426 19.2082 33.9182 19.2631 33.9319 19.3867C34.1448 21.1791 33.4787 22.4565 31.9404 23.1638C31.7275 23.26 31.5695 23.4454 31.5009 23.6651C29.9351 28.6371 25.8833 33.9251 21.4607 33.9251C17.0312 33.9251 12.9863 28.6371 11.4205 23.6651C11.3587 23.4316 11.2008 23.2462 10.9879 23.1501ZM12.0042 35.2711C12.2995 35.1406 12.5124 35.0719 12.6566 35.0444C13.3159 36.2325 15.4105 39.4396 19.1395 40.4354C18.1918 41.0878 17.4501 41.8638 17.0243 42.3583C13.0275 40.5727 12.1828 36.6858 12.0042 35.2711ZM21.4607 53.8062L19.4623 51.334L20.9662 45.4486H21.4607H21.4675H21.4744H21.9689L23.4728 51.334L21.4607 53.8062ZM22.9234 43.8004H21.4607H21.4538H21.4469H19.9842L18.8236 42.839C19.4966 42.1728 20.4443 41.4243 21.4607 41.0878C22.5114 41.438 23.4385 42.2003 24.0772 42.839L22.9234 43.8004ZM25.8902 42.3583C25.4644 41.8569 24.7227 41.0809 23.775 40.4354C27.5109 39.4327 29.5986 36.2325 30.2578 35.0444C30.4021 35.0788 30.6081 35.1475 30.9102 35.2711C30.7317 36.6858 29.887 40.5727 25.8902 42.3583ZM27.6529 17.0569C27.5938 17.0172 26.9946 16.6145 26.1034 16.7496C25.6502 16.8114 25.2313 16.5023 25.1695 16.056C25.1008 15.6096 25.4098 15.1907 25.8631 15.122C27.4495 14.8816 28.5276 15.6508 28.6444 15.7401C29.0083 16.0148 29.077 16.5298 28.8023 16.8938C28.6375 17.1135 28.3903 17.2234 28.143 17.2234C27.9714 17.2234 27.7997 17.1685 27.6555 17.0586L27.6529 17.0569ZM16.846 16.7496C17.2855 16.8183 17.7181 16.5092 17.7799 16.056C17.8486 15.6027 17.5396 15.1838 17.0863 15.122C15.507 14.8906 14.4405 15.6443 14.3083 15.7378L14.305 15.7401C13.9479 16.0148 13.8792 16.5161 14.1402 16.8801C14.2981 17.0998 14.5522 17.2166 14.8063 17.2166C14.9712 17.2166 15.1428 17.1685 15.287 17.0586L15.2947 17.0538C15.3748 17.0023 15.9721 16.6182 16.846 16.7496ZM21.4814 24.5716C20.877 24.5716 20.2933 24.5098 19.7576 24.3862C19.3113 24.2832 19.0366 23.8368 19.1396 23.3973C19.2426 22.9509 19.689 22.6762 20.1285 22.7792C20.9457 22.9715 22.0102 22.9715 22.8342 22.7792C23.2806 22.6762 23.7201 22.9509 23.8232 23.3973C23.9262 23.8437 23.6515 24.2832 23.2051 24.3862C22.6694 24.5098 22.0857 24.5716 21.4814 24.5716ZM17.2237 27.7239C16.9146 27.3874 16.9283 26.8724 17.258 26.5564C17.5876 26.2474 18.1027 26.2612 18.4117 26.5839C18.4598 26.632 19.3526 27.4698 21.4609 27.4698C23.5898 27.4698 24.4757 26.6183 24.51 26.5839C24.8328 26.268 25.3478 26.2612 25.6706 26.5771C25.9933 26.8861 26.0071 27.3943 25.698 27.7239C25.5607 27.8681 24.2971 29.118 21.4609 29.118C18.6246 29.118 17.361 27.8681 17.2237 27.7239ZM25.2073 20.9623C24.9431 20.7887 24.7641 20.4967 24.7449 20.161C24.7305 20.0814 24.723 19.9993 24.723 19.9155C24.723 19.1569 25.3379 18.542 26.0965 18.542C26.855 18.542 27.47 19.1569 27.47 19.9155C27.47 20.674 26.855 21.289 26.0965 21.289C25.7573 21.289 25.4469 21.1661 25.2073 20.9623ZM21.0625 30.2028H21.5981C22.0582 30.2028 22.4222 30.5737 22.4222 31.0269C22.4222 31.4802 22.0514 31.851 21.5981 31.851H21.0625C20.6092 31.851 20.2384 31.4802 20.2384 31.0269C20.2384 30.5737 20.6092 30.2028 21.0625 30.2028ZM9.60081 54.0672V48.0719C9.60081 47.6186 9.22999 47.2478 8.77674 47.2478C8.32349 47.2478 7.95264 47.6186 7.95264 48.0719V54.0672C7.95264 54.5204 8.32349 54.8912 8.77674 54.8912C9.22999 54.8912 9.60081 54.5204 9.60081 54.0672ZM17.1686 21.289C17.9271 21.289 18.542 20.674 18.542 19.9155C18.542 19.1569 17.9271 18.542 17.1686 18.542C16.41 18.542 15.7951 19.1569 15.7951 19.9155C15.7951 20.674 16.41 21.289 17.1686 21.289ZM40.1053 24.3745C40.3388 24.4638 40.5242 24.6629 40.5929 24.9033C42.1861 30.2667 46.4645 35.6989 51.5602 35.6989C56.6558 35.6989 60.9411 30.2667 62.5343 24.9033C62.6098 24.6629 62.7884 24.4706 63.0219 24.3745C65.4735 23.4062 65.6521 21.497 65.3705 20.0686C65.3431 19.9175 65.1851 19.8077 65.0272 19.8283L64.1138 19.9244H64.1069C63.9902 19.9381 63.8803 19.9244 63.7773 19.8901C58.4825 18.3312 56.1339 15.0623 55.1518 13.0158C49.2115 22.5065 39.9954 20.2128 38.9447 19.9175L38.1 19.8283C37.9421 19.8145 37.7841 19.9175 37.7566 20.0686C37.6536 20.6043 37.5781 21.4078 37.8322 22.1906C38.1412 23.1658 38.9104 23.9006 40.1053 24.3745ZM57.7546 35.6233H57.7614C60.687 35.9804 63.4889 35.5615 65.034 35.2456C63.334 32.5653 64.0699 28.8587 64.6258 26.0586L64.6288 26.0433L64.7113 25.6244C64.7234 25.5718 64.7331 25.5168 64.7433 25.4595C64.7504 25.4194 64.7577 25.3783 64.7662 25.3359C64.5327 25.4801 64.2924 25.6175 64.0108 25.748C62.6167 30.1912 60.2337 33.2815 57.6584 35.1495C57.6801 35.2689 57.7061 35.3927 57.733 35.5207L57.7546 35.6233ZM51.5807 5.79039C51.5395 5.79682 51.4983 5.80326 51.4571 5.79811C51.1069 5.75004 42.9072 4.72679 39.3774 13.9085C38.8486 15.2614 38.4915 16.7036 38.2854 18.1869L39.2057 18.2831L39.2149 18.2842C39.2675 18.2908 39.3255 18.298 39.3774 18.3174C39.7688 18.4479 49.0742 21.3185 54.5887 10.6946C54.7535 10.3856 55.09 10.2139 55.4334 10.2551C55.7768 10.3031 56.0514 10.5572 56.127 10.9006C56.1682 11.1135 57.3769 16.216 64.1207 18.2625L64.8623 18.1869H64.9722C64.7593 16.7036 64.4022 15.2683 63.8803 13.9085C60.3367 4.72679 52.1302 5.75004 51.7868 5.79811C51.7456 5.80326 51.7044 5.79682 51.6632 5.79038C51.6494 5.78824 51.6357 5.78609 51.622 5.78438C51.6082 5.78609 51.5945 5.78824 51.5808 5.79038L51.5807 5.79039ZM38.5975 25.9625C39.1534 28.7626 39.8893 32.4692 38.1893 35.1495C39.7001 35.4654 42.4402 35.8843 45.2902 35.5478L45.3111 35.4445L45.3249 35.3773L45.3251 35.3765L45.3251 35.3764C45.3472 35.269 45.3683 35.1665 45.3863 35.0671C42.8523 33.1922 40.5105 30.1294 39.1301 25.7411C38.8966 25.6381 38.6906 25.5213 38.4846 25.3977C38.4983 25.4458 38.5052 25.487 38.5121 25.5282L38.5945 25.9471L38.5975 25.9625ZM44.8644 40.1421C45.3383 41.8452 47.1307 46.9546 51.5121 46.9546C55.8935 46.9546 57.6859 41.8452 58.1666 40.1421L58.152 40.1321L58.1323 40.1181C58.1203 40.1095 58.1082 40.1009 58.0979 40.094C56.9579 39.215 56.4704 37.4981 56.1682 36.0766C54.5955 36.9213 53.0092 37.3402 51.5739 37.3402C50.1111 37.3402 48.4835 36.9007 46.8766 36.0216C46.5744 37.4501 46.0868 39.2081 44.9331 40.094C44.9182 40.1089 44.8996 40.1203 44.8827 40.1306C44.8763 40.1345 44.8701 40.1383 44.8644 40.1421ZM46.6982 23.3493C46.4056 23.3493 46.1343 23.2577 45.9114 23.1017C45.777 23.0177 45.6628 22.9042 45.5778 22.7704C45.4184 22.5461 45.3247 22.2719 45.3247 21.9758C45.3247 21.2172 45.9397 20.6023 46.6982 20.6023C47.4568 20.6023 48.0717 21.2172 48.0717 21.9758C48.0717 22.7343 47.4568 23.3493 46.6982 23.3493ZM54.2592 31.3175L53.0093 30.2462C53.0093 30.2462 53.023 30.2256 53.0642 30.1912C53.0637 30.1912 53.0614 30.1927 53.0571 30.1954C53.0016 30.2305 52.6187 30.4728 51.574 30.4728C50.5293 30.4728 50.1405 30.2305 50.0842 30.1954C50.0798 30.1927 50.0774 30.1912 50.0769 30.1912C50.1181 30.2256 50.1318 30.2462 50.1318 30.2462L48.882 31.3175C49.0468 31.5029 49.7129 32.121 51.574 32.121C53.4282 32.121 54.1012 31.5029 54.2592 31.3175ZM51.6567 26.8125C51.4164 26.8125 51.1829 26.785 50.97 26.7369C50.5305 26.6339 50.2558 26.1875 50.3588 25.7411C50.4618 25.3016 50.9082 25.0269 51.3477 25.1299C51.4644 25.1574 51.7666 25.178 51.9726 25.1299C52.419 25.0269 52.8585 25.3016 52.9615 25.748C53.0646 26.1875 52.7899 26.6339 52.3435 26.7369C52.1306 26.785 51.8971 26.8125 51.6567 26.8125ZM60.495 51.1506C60.0417 51.1506 59.6709 51.5214 59.6709 51.9747V53.8564C59.6709 54.3096 60.0417 54.6805 60.495 54.6805C60.9482 54.6805 61.3191 54.3096 61.3191 53.8564V51.9747C61.3191 51.5146 60.9551 51.1506 60.495 51.1506ZM57.3839 20.2335C57.0818 20.0206 56.7384 19.8833 56.3676 19.8215C55.9143 19.7528 55.6122 19.327 55.6877 18.8806C55.7564 18.4274 56.1753 18.1252 56.6285 18.1939C57.2535 18.29 57.8303 18.5235 58.3385 18.8875C58.7093 19.1485 58.7918 19.6635 58.5308 20.0343C58.3728 20.261 58.1188 20.3846 57.8578 20.3846C57.693 20.3846 57.5282 20.3365 57.3839 20.2335ZM56.3129 23.3493C57.0715 23.3493 57.6864 22.7343 57.6864 21.9758C57.6864 21.2172 57.0715 20.6023 56.3129 20.6023C55.5543 20.6023 54.9394 21.2172 54.9394 21.9758C54.9394 22.7343 55.5543 23.3493 56.3129 23.3493Z" fill="white"/>
</svg>
