<svg width="70" height="70" viewBox="0 0 70 70" fill="none" xmlns="http://www.w3.org/2000/svg">
<path fill-rule="evenodd" clip-rule="evenodd" d="M41.3771 14.794C40.7734 14.794 40.2935 15.262 40.2935 15.8507V22.7043C40.2935 23.2931 40.7734 23.761 41.3771 23.761C41.9808 23.761 42.4607 23.2931 42.4607 22.7043V16.9225H49.9375C50.3709 16.9225 50.7734 16.6659 50.9436 16.2734C51.1139 15.8809 51.021 15.428 50.7115 15.1261L35.7579 0.317002C35.5566 0.120755 35.278 0 34.9839 0C34.6897 0 34.4111 0.120755 34.2099 0.317002L19.2563 15.1261C18.9467 15.428 18.8538 15.8809 19.0241 16.2734C19.1944 16.6659 19.5968 16.9225 20.0303 16.9225H27.5071V38.7966C27.5071 39.3853 27.987 39.8533 28.5907 39.8533C29.1944 39.8533 29.6743 39.3853 29.6743 38.7966V15.8659C29.6743 15.2771 29.1944 14.8091 28.5907 14.8091H22.6309L34.9839 2.56628L47.3368 14.8091H41.3771V14.794ZM57.9874 9.94831H68.9162C69.5044 9.94831 69.9998 10.4314 69.9998 11.0201V15.0205C69.9998 15.6093 69.5199 16.0773 68.9162 16.0773C68.3125 16.0773 67.8326 15.6093 67.8326 15.0205V12.0768H59.071V67.8865H68.9162C69.5199 67.8865 69.9998 68.3545 69.9998 68.9432C69.9998 69.532 69.5199 70 68.9162 70H57.9874C57.3837 70 56.9038 69.532 56.9038 68.9432V11.005C56.9038 10.4163 57.3837 9.94831 57.9874 9.94831ZM49.9382 26.1916H39.0094C38.4057 26.1916 37.9258 26.6595 37.9258 27.2483V68.9433C37.9258 69.532 38.4057 70 39.0094 70H49.9382C50.5419 70 51.0218 69.532 51.0218 68.9433C51.0218 68.3545 50.5419 67.8865 49.9382 67.8865H40.093V28.3201H48.8391V31.3091C48.8391 31.8978 49.319 32.3658 49.9227 32.3658C50.5264 32.3658 51.0063 31.8978 51.0063 31.3091V27.2634C51.0373 26.6746 50.5419 26.1916 49.9382 26.1916ZM20.047 42.0876H30.9758C31.5795 42.0876 32.0594 42.5555 32.0439 43.1443V47.5372C32.0439 48.126 31.564 48.5939 30.9603 48.5939C30.3566 48.5939 29.8767 48.126 29.8767 47.5372V44.2161H21.1306V67.8865H30.9758C31.5795 67.8865 32.0594 68.3545 32.0594 68.9433C32.0594 69.532 31.5795 70 30.9758 70H20.047C19.4433 70 18.9634 69.532 18.9634 68.9433V43.1443C18.9634 42.5555 19.4433 42.0876 20.047 42.0876ZM1.08359 47.1446H12.0124C12.6161 47.1446 13.096 47.6277 13.0805 48.2165V52.5943C13.0805 53.183 12.6006 53.651 11.9969 53.651C11.3932 53.651 10.9133 53.183 10.9133 52.5943V49.2732H2.16718V67.8864H12.0124C12.6161 67.8864 13.096 68.3544 13.096 68.9432C13.096 69.5319 12.6161 69.9999 12.0124 69.9999H1.08359C0.479873 69.9999 0 69.5319 0 68.9432V48.2014C0 47.6126 0.479873 47.1446 1.08359 47.1446ZM12.0123 62.5124C11.4086 62.5124 10.9287 62.9804 10.9287 63.5692V64.1428C10.9287 64.7316 11.4086 65.1995 12.0123 65.1995C12.616 65.1995 13.0959 64.7316 13.0959 64.1428V63.5692C13.0959 62.9804 12.616 62.5124 12.0123 62.5124ZM10.9287 58.195C10.9287 57.6062 11.4086 57.1382 12.0123 57.1382C12.616 57.1382 13.0959 57.6213 13.0959 58.195V58.7686C13.0959 59.3574 12.616 59.8254 12.0123 59.8254C11.4086 59.8254 10.9287 59.3574 10.9287 58.7686V58.195ZM30.9762 57.1382C30.3724 57.1382 29.8926 57.6062 29.8926 58.195V58.7686C29.8926 59.3574 30.3724 59.8254 30.9762 59.8254C31.5799 59.8254 32.0598 59.3574 32.0598 58.7686V58.195C32.0598 57.6213 31.5799 57.1382 30.9762 57.1382ZM29.8926 52.8358C29.8926 52.247 30.3724 51.7791 30.9762 51.7791C31.5799 51.7791 32.0598 52.247 32.0598 52.8358V53.4094C32.0598 53.9982 31.5799 54.4661 30.9762 54.4661C30.3724 54.4661 29.8926 53.9982 29.8926 53.4094V52.8358ZM30.9762 62.5124C30.3724 62.5124 29.8926 62.9804 29.8926 63.5692V64.1428C29.8926 64.7316 30.3724 65.1995 30.9762 65.1995C31.5799 65.1995 32.0598 64.7316 32.0598 64.1428V63.5692C32.0598 62.9804 31.5799 62.5124 30.9762 62.5124ZM48.855 36.7285C48.855 36.1397 49.3349 35.6718 49.9386 35.6718C50.5423 35.6718 51.0376 36.1397 51.0222 36.7285V37.3021C51.0222 37.8909 50.5423 38.3589 49.9386 38.3589C49.3349 38.3589 48.855 37.8909 48.855 37.3021V36.7285ZM49.9386 46.405C49.3349 46.405 48.855 46.873 48.855 47.4617V48.0354C48.855 48.6241 49.3349 49.0921 49.9386 49.0921C50.5423 49.0921 51.0222 48.6241 51.0222 48.0354V47.4617C51.0376 46.8881 50.5423 46.405 49.9386 46.405ZM48.855 58.195C48.855 57.6062 49.3349 57.1382 49.9386 57.1382C50.5423 57.1382 51.0376 57.6213 51.0222 58.195V58.7686C51.0222 59.3574 50.5423 59.8254 49.9386 59.8254C49.3349 59.8254 48.855 59.3574 48.855 58.7686V58.195ZM49.9386 51.7791C49.3349 51.7791 48.855 52.247 48.855 52.8358V53.4094C48.855 53.9982 49.3349 54.4661 49.9386 54.4661C50.5423 54.4661 51.0222 53.9982 51.0222 53.4094V52.8358C51.0376 52.247 50.5423 51.7791 49.9386 51.7791ZM48.855 63.5692C48.855 62.9804 49.3349 62.5124 49.9386 62.5124C50.5423 62.5124 51.0376 62.9804 51.0222 63.5692V64.1428C51.0222 64.7316 50.5423 65.1995 49.9386 65.1995C49.3349 65.1995 48.855 64.7316 48.855 64.1428V63.5692ZM49.9386 41.031C49.3349 41.031 48.855 41.499 48.855 42.0877V42.6614C48.855 43.2501 49.3349 43.7181 49.9386 43.7181C50.5423 43.7181 51.0222 43.2501 51.0222 42.6614V42.0877C51.0376 41.5141 50.5423 41.031 49.9386 41.031ZM67.833 25.9953C67.833 25.4065 68.3129 24.9386 68.9166 24.9386C69.5048 24.9386 70.0002 25.4065 70.0002 25.9953V26.5689C70.0002 27.1577 69.5203 27.6256 68.9166 27.6256C68.3129 27.6256 67.833 27.1577 67.833 26.5689V25.9953ZM68.9166 19.5644C68.3129 19.5644 67.833 20.0324 67.833 20.6211V21.1948C67.833 21.7835 68.3129 22.2514 68.9166 22.2514C69.5203 22.2514 70.0002 21.7835 70.0002 21.1948V20.6211C70.0002 20.0324 69.5048 19.5644 68.9166 19.5644ZM67.833 36.7285C67.833 36.1397 68.3129 35.6718 68.9166 35.6718C69.5048 35.6718 70.0002 36.1397 70.0002 36.7285V37.3021C70.0002 37.8909 69.5203 38.3589 68.9166 38.3589C68.3129 38.3589 67.833 37.8909 67.833 37.3021V36.7285ZM68.9166 57.1382C68.3129 57.1382 67.833 57.6062 67.833 58.195V58.7686C67.833 59.3574 68.3129 59.8254 68.9166 59.8254C69.5203 59.8254 70.0002 59.3574 70.0002 58.7686V58.195C70.0002 57.6213 69.5048 57.1382 68.9166 57.1382ZM67.833 31.3543C67.833 30.7656 68.3129 30.2976 68.9166 30.2976C69.5048 30.2976 70.0002 30.7806 70.0002 31.3543V31.9279C70.0002 32.5167 69.5203 32.9847 68.9166 32.9847C68.3129 32.9847 67.833 32.5167 67.833 31.9279V31.3543ZM68.9166 46.405C68.3129 46.405 67.833 46.873 67.833 47.4617V48.0354C67.833 48.6241 68.3129 49.0921 68.9166 49.0921C69.5203 49.0921 70.0002 48.6241 70.0002 48.0354V47.4617C70.0002 46.8881 69.5048 46.405 68.9166 46.405ZM67.833 42.0877C67.833 41.499 68.3129 41.031 68.9166 41.031C69.5048 41.031 70.0002 41.5141 70.0002 42.0877V42.6614C70.0002 43.2501 69.5203 43.7181 68.9166 43.7181C68.3129 43.7181 67.833 43.2501 67.833 42.6614V42.0877ZM68.9166 51.7791C68.3129 51.7791 67.833 52.247 67.833 52.8358V53.4094C67.833 53.9982 68.3129 54.4661 68.9166 54.4661C69.5203 54.4661 70.0002 53.9982 70.0002 53.4094V52.8358C70.0002 52.247 69.5048 51.7791 68.9166 51.7791ZM67.833 63.5692C67.833 62.9804 68.3129 62.5124 68.9166 62.5124C69.5048 62.5124 70.0002 62.9804 70.0002 63.5692V64.1428C70.0002 64.7316 69.5203 65.1995 68.9166 65.1995C68.3129 65.1995 67.833 64.7316 67.833 64.1428V63.5692ZM18.9157 39.0232V31.1431C18.9157 30.5543 19.4111 30.0713 19.9993 30.0864H22.6928L16.0364 23.4894L9.38007 30.0864H12.0736C12.6773 30.0864 13.1572 30.5543 13.1572 31.1431V43.5821C13.1572 44.1709 12.6773 44.6389 12.0736 44.6389C11.4698 44.6389 10.99 44.1709 10.99 43.5821V32.2149H6.77943C6.34599 32.2149 5.94353 31.9583 5.77325 31.5658C5.60297 31.1733 5.69584 30.7204 6.00544 30.4185L15.2624 21.2552C15.4637 21.059 15.7423 20.9382 16.0364 20.9382C16.3306 20.9382 16.6092 21.059 16.8104 21.2552L26.0674 30.4185C26.377 30.7204 26.4699 31.1733 26.2996 31.5658C26.1293 31.9583 25.7269 32.2149 25.2934 32.2149H21.0829V39.0232C21.0829 39.6119 20.603 40.0799 19.9993 40.0799C19.3956 40.0799 18.9157 39.6119 18.9157 39.0232Z" fill="white"/>
</svg>
