<svg width="70" height="70" viewBox="0 0 70 70" fill="none" xmlns="http://www.w3.org/2000/svg">
<path fill-rule="evenodd" clip-rule="evenodd" d="M68.8833 39.6329C69.8794 37.6567 69.9261 35.8163 69.0079 34.1418C65.8952 28.4697 52.3707 27.0064 46.69 26.6292C45.694 26.5689 44.8069 26.0258 44.34 25.1659C43.8731 24.3212 43.8731 23.3708 44.34 22.526L44.3555 22.4958C45.1181 21.1532 46.5966 18.4831 47.2503 17.1556C48.4175 14.8173 48.9623 12.2377 48.8533 9.70333C48.7444 7.34999 48.0596 5.10225 46.8923 3.38251C45.3671 1.11968 43.2038 -0.0720549 40.8071 0.00337252C38.3792 0.0938854 35.3288 1.28566 34.5817 6.53541C33.9281 11.1063 31.9827 15.466 29.368 18.2267C25.7573 22.0282 23.1583 25.4073 20.388 29.8877C19.5787 31.1851 17.6177 32.1807 14.7852 32.7238V32.3316C14.7852 30.1592 12.9643 28.3943 10.7231 28.3943H4.06203C1.82091 28.3943 0 30.1592 0 32.3316V62.3366C0 64.5089 1.82091 66.2739 4.06203 66.2739H10.7231C12.5129 66.2739 14.0537 65.1425 14.5828 63.5736C18.3025 64.2374 22.4112 65.4593 25.7106 66.9377C30.0372 68.8535 36.9007 70 44.0598 70C47.4059 70 52.3395 69.8341 56.4327 68.3557C61.1328 66.6661 63.7941 63.6339 64.37 59.3497C65.7084 58.2183 66.7978 56.6796 67.4671 54.99C68.1674 53.1797 68.323 51.3242 67.9028 49.695C69.9883 46.7533 70.8754 42.6048 68.8833 39.6329ZM12.6063 62.3517C12.6063 63.3624 11.7659 64.177 10.7231 64.177H4.06203C3.01929 64.177 2.17886 63.3624 2.17886 62.3517V32.3467C2.17886 31.3359 3.01929 30.5213 4.06203 30.5213H10.7231C11.7659 30.5213 12.6063 31.3359 12.6063 32.3467V62.3517ZM65.8485 48.8502C65.6306 49.1368 65.5684 49.4988 65.6929 49.8307C66.7045 52.7121 64.9614 56.242 62.6891 57.9769C62.4557 58.1579 62.3 58.4144 62.2845 58.7161C61.9265 62.397 59.7788 64.9011 55.7168 66.3644C51.9504 67.7221 47.2814 67.8729 44.1065 67.8729C37.3365 67.8729 30.6442 66.7717 26.66 65.0067C23.1427 63.4529 18.7694 62.1405 14.8163 61.4616V34.8961C17.6021 34.4134 20.8393 33.3423 22.3023 30.989C24.9947 26.6293 27.516 23.3557 31.0177 19.6749C33.9281 16.6125 36.0758 11.8153 36.7917 6.83709C37.0719 4.87598 37.8034 2.25113 40.9316 2.14553C42.5346 2.08519 44.0287 2.94503 45.1181 4.55917C46.8457 7.10862 47.5771 11.7248 45.336 16.2655C44.6979 17.5629 43.2505 20.1877 42.5035 21.5002L42.4723 21.5454C41.6319 23.0087 41.632 24.7587 42.4568 26.222C43.2972 27.7154 44.838 28.6658 46.5811 28.7865C49.1646 28.9524 54.176 29.4201 58.7672 30.6269C63.2338 31.8036 66.1131 33.3725 67.1091 35.1827C67.7472 36.3594 67.6071 37.6718 66.6889 39.2256C66.4554 39.6028 66.5021 40.0855 66.7978 40.4325C68.1985 42.0919 68.3698 45.6219 65.8485 48.8502ZM45.8656 35.7409C43.5 35.7409 41.2745 36.7516 39.7648 38.4563C38.2552 36.7516 36.0452 35.7409 33.664 35.7409C29.2284 35.7409 25.6333 39.2408 25.6333 43.525C25.6333 47.04 27.8277 50.7962 32.1388 54.7034C35.3137 57.5696 38.5197 59.4855 38.8777 59.6967L39.2045 59.8928C39.3757 59.9984 39.5781 60.0437 39.7648 60.0437C39.9671 60.0437 40.1539 59.9984 40.3251 59.8928L40.6519 59.6967C41.0099 59.4855 44.2003 57.5847 47.3753 54.7034C51.7019 50.7962 53.8808 47.04 53.8808 43.525C53.9119 39.2257 50.3012 35.7409 45.8656 35.7409ZM45.8968 53.1496C43.2821 55.518 40.5897 57.2226 39.7648 57.7355C38.94 57.2377 36.2631 55.518 33.6329 53.1496C30.9871 50.751 27.8122 47.1305 27.8122 43.525C27.8122 40.4023 30.4424 37.8529 33.664 37.8529C35.7962 37.8529 37.7727 38.9843 38.7999 40.8097C38.9867 41.1566 39.3602 41.3678 39.7648 41.3678C40.1695 41.3678 40.5274 41.1566 40.7297 40.8097C41.7569 38.9843 43.7179 37.8529 45.8656 37.8529C49.0872 37.8529 51.7174 40.4023 51.7174 43.525C51.7174 47.1305 48.5581 50.751 45.8968 53.1496ZM44.7754 40.9303C44.7754 40.3419 45.2578 39.8743 45.8648 39.8743C47.9503 39.8743 49.6311 41.5186 49.6156 43.5099C49.6156 44.0982 49.1331 44.5659 48.5262 44.5659C47.9192 44.5659 47.4367 44.0982 47.4367 43.5099C47.4367 42.6802 46.7363 41.9863 45.8648 41.9863C45.2578 41.9863 44.7754 41.5186 44.7754 40.9303Z" fill="white"/>
</svg>
