<svg width="70" height="63" viewBox="0 0 70 63" fill="none" xmlns="http://www.w3.org/2000/svg">
<path fill-rule="evenodd" clip-rule="evenodd" d="M16.4777 42.5976H10.4872C4.70792 42.5976 0 37.8897 0 32.1104V10.4872C0 4.70789 4.70792 0 10.4872 0H51.0477C56.827 0 61.5349 4.70789 61.5349 10.4872V32.0953C61.5349 37.8746 56.827 42.5825 51.0477 42.5825H34.3286C34.3135 42.5825 34.2833 42.5976 34.2682 42.6127L20.3255 56.5554C19.903 56.9779 19.3447 57.2042 18.7713 57.2042C18.4846 57.2042 18.1979 57.159 17.9263 57.0383C17.0964 56.7063 16.5683 55.8914 16.5683 55.0012V42.6881C16.5683 42.6429 16.523 42.5976 16.4777 42.5976ZM10.4872 2.11252C5.86981 2.11252 2.11253 5.86978 2.11253 10.4872V32.1255C2.11253 36.7429 5.86981 40.5002 10.4872 40.5002H16.4777C17.6849 40.5002 18.6808 41.481 18.6808 42.7032V55.0163C18.6808 55.0314 18.6808 55.0766 18.7411 55.0917C18.7864 55.1219 18.8166 55.0917 18.8317 55.0766L32.7744 41.1339C33.1969 40.7114 33.7552 40.4851 34.3437 40.4851H51.0628C55.6802 40.4851 59.4375 36.7278 59.4375 32.1104V10.4872C59.4375 5.86978 55.6802 2.11252 51.0628 2.11252H10.4872ZM64.7939 18.545C64.3111 18.2131 64.1753 17.5491 64.5072 17.0663C64.8392 16.5834 65.5032 16.4627 65.986 16.7796C68.506 18.4847 69.9998 21.2913 69.9998 24.3243V41.3C69.9998 46.3248 65.9105 50.399 60.9008 50.399H55.8761V60.7956C55.8761 61.6255 55.3932 62.3649 54.6236 62.6818C54.3671 62.7874 54.0955 62.8327 53.839 62.8327C53.3108 62.8327 52.7978 62.6214 52.4055 62.2291L40.5602 50.3839H32.8495C32.261 50.3839 31.7932 49.9161 31.7932 49.3276C31.7932 48.7391 32.261 48.2713 32.8495 48.2713H40.5904C41.1487 48.2713 41.6467 48.4826 42.039 48.8749L53.7635 60.5994V50.3084C53.7635 49.1918 54.684 48.2713 55.8006 48.2713H60.9008C64.7487 48.2713 67.8722 45.1478 67.8722 41.3V24.3243C67.8722 22.0005 66.7254 19.8427 64.7939 18.545ZM33.4687 21.759H33.9365C34.525 21.759 34.9927 21.2913 34.9927 20.7028C34.9927 20.1143 34.525 19.6465 33.9365 19.6465H33.4687C32.8802 19.6465 32.4124 20.1143 32.4124 20.7028C32.4124 21.2913 32.8953 21.759 33.4687 21.759ZM27.8404 21.759H27.3726C26.7841 21.759 26.3163 21.2913 26.3163 20.7028C26.3163 20.1143 26.7841 19.6465 27.3726 19.6465H27.8404C28.4288 19.6465 28.8966 20.1143 28.8966 20.7028C28.8966 21.2913 28.4288 21.759 27.8404 21.759ZM39.5792 21.759H40.0469C40.6354 21.759 41.1032 21.2913 41.1032 20.7028C41.1032 20.1143 40.6354 19.6465 40.0469 19.6465H39.5792C38.9907 19.6465 38.5229 20.1143 38.5229 20.7028C38.5229 21.2913 38.9907 21.759 39.5792 21.759ZM21.7446 21.759H21.2768C20.6883 21.759 20.2055 21.2913 20.2205 20.7028C20.2205 20.1143 20.6883 19.6465 21.2768 19.6465H21.7446C22.3331 19.6465 22.8008 20.1143 22.8008 20.7028C22.8008 21.2913 22.3331 21.759 21.7446 21.759Z" fill="white"/>
</svg>
