<svg width="70" height="73" viewBox="0 0 70 73" fill="none" xmlns="http://www.w3.org/2000/svg">
<path fill-rule="evenodd" clip-rule="evenodd" d="M1.16817 66.5613H1.16788C0.867812 66.5613 0.584411 66.451 0.367696 66.2621C0.10097 66.026 -0.0157205 65.6954 0.0176202 65.3491L1.56796 51.8731C1.90137 48.9449 3.30168 46.1741 5.51884 44.0803L48.5117 3.47923C50.8789 1.24373 54.0462 0 57.4136 0C60.7644 0 63.9317 1.22799 66.3156 3.47923C68.6828 5.71473 69.9998 8.70589 69.9998 11.886C69.9998 15.0503 68.6995 18.0415 66.3156 20.2927L62.6815 23.7247L23.1727 61.0355C21.0556 63.0191 18.2717 64.3258 15.321 64.7194L1.33458 66.5455C1.26803 66.5613 1.21808 66.5613 1.16817 66.5613ZM10.5533 63.1135L3.40171 56.3598L2.51817 64.1683L10.5533 63.1135ZM60.1976 22.9375L45.6944 9.24111L9.9865 42.9626L24.4897 56.659L60.1976 22.9375ZM57.4136 2.1883C54.6797 2.1883 52.0958 3.19583 50.162 5.02201L47.3614 7.66682L61.8646 21.3632L64.6652 18.7184C66.599 16.8922 67.6659 14.4521 67.6659 11.8702C67.6659 9.28836 66.599 6.84819 64.6652 5.02201C62.7315 3.19583 60.1476 2.1883 57.4136 2.1883ZM8.33613 44.5211L7.1692 45.6231C5.33546 47.3549 4.16854 49.6533 3.88514 52.0935L3.71844 53.5261L13.4539 62.72L15.0043 62.5154C17.4548 62.2005 19.772 61.1142 21.5224 59.4612L22.8393 58.2175L8.33613 44.5211ZM64.1475 12.9724C63.4973 12.9724 62.9805 12.4843 62.9805 11.8703C62.9805 10.4692 62.3971 9.1468 61.3469 8.13925C60.8968 7.71419 60.8968 7.00577 61.3469 6.58071C61.797 6.15565 62.5471 6.15565 62.9972 6.58071C64.4976 7.99758 65.3144 9.87097 65.3144 11.8703C65.3144 12.4843 64.7976 12.9724 64.1475 12.9724ZM18.7211 42.6634C18.9545 42.8838 19.2545 42.994 19.5546 42.994C19.8547 42.994 20.1547 42.8838 20.3881 42.6634L45.1269 19.3008C45.577 18.8758 45.577 18.1673 45.1269 17.7423C44.6768 17.3172 43.9266 17.3172 43.4765 17.7423L18.7377 41.1048C18.2543 41.5299 18.2543 42.2226 18.7211 42.6634ZM25.422 48.5356C25.1219 48.5356 24.8218 48.4254 24.5885 48.205C24.1384 47.7642 24.1383 47.0715 24.6051 46.6464L49.3439 23.2839C49.794 22.8588 50.5442 22.8588 50.9943 23.2839C51.4444 23.7089 51.4444 24.4173 50.9943 24.8424L26.2555 48.205C26.0221 48.4254 25.722 48.5356 25.422 48.5356ZM8.61859 70.7959C7.96845 70.7959 7.45166 71.284 7.45166 71.8979C7.45166 72.5119 7.96845 72.9999 8.61859 72.9999H9.18538C9.83552 72.9999 10.3523 72.5119 10.3523 71.8979C10.3523 71.284 9.83552 70.7959 9.18538 70.7959H8.61859ZM22.3711 71.8979C22.3711 71.284 22.8879 70.7959 23.538 70.7959H24.1048C24.755 70.7959 25.2717 71.284 25.2717 71.8979C25.2717 72.5119 24.755 72.9999 24.1048 72.9999H23.538C22.8879 72.9999 22.3711 72.5119 22.3711 71.8979ZM1.16692 72.9999H1.73372C2.38386 72.9999 2.90064 72.5119 2.90064 71.8979C2.90064 71.284 2.38386 70.7959 1.73372 70.7959H1.16692C0.516776 70.7959 0 71.284 0 71.8979C0 72.5119 0.533446 72.9999 1.16692 72.9999ZM61.3635 72.9999H60.7967C60.1465 72.9999 59.6131 72.5119 59.6298 71.8979C59.6298 71.284 60.1465 70.7959 60.7967 70.7959H61.3635C62.0136 70.7959 62.5304 71.284 62.5304 71.8979C62.5304 72.5119 62.0136 72.9999 61.3635 72.9999ZM67.0645 71.8979C67.0645 72.5119 67.5812 72.9999 68.2314 72.9999H68.7982C69.4483 72.9999 69.9651 72.5119 69.9651 71.8979C69.9651 71.284 69.4483 70.7959 68.7982 70.7959H68.2314C67.5979 70.7959 67.0645 71.284 67.0645 71.8979ZM52.1787 71.8979C52.1787 71.284 52.6955 70.7959 53.3456 70.7959H53.9124C54.5626 70.7959 55.0794 71.284 55.0794 71.8979C55.0794 72.5119 54.5626 72.9999 53.9124 72.9999H53.3456C52.6955 72.9999 52.1787 72.5119 52.1787 71.8979ZM45.8935 70.7959C45.2434 70.7959 44.7266 71.284 44.7266 71.8979C44.7266 72.5119 45.2434 72.9999 45.8935 72.9999H46.4603C47.1104 72.9999 47.6272 72.5119 47.6272 71.8979C47.6272 71.284 47.1104 70.7959 46.4603 70.7959H45.8935ZM29.8228 71.8979C29.8228 71.284 30.3395 70.7959 30.9897 70.7959H31.5565C32.2066 70.7959 32.7234 71.284 32.7234 71.8979C32.7234 72.5119 32.2066 72.9999 31.5565 72.9999H30.9897C30.3395 72.9999 29.8228 72.5119 29.8228 71.8979ZM16.0698 70.7959C15.4196 70.7959 14.9028 71.284 14.9028 71.8979C14.9028 72.5119 15.4196 72.9999 16.0698 72.9999H16.6366C17.2867 72.9999 17.8035 72.5119 17.8035 71.8979C17.8035 71.284 17.2867 70.7959 16.6366 70.7959H16.0698ZM37.2749 71.8979C37.2749 71.284 37.7917 70.7959 38.4418 70.7959H39.0086C39.6588 70.7959 40.1755 71.284 40.1755 71.8979C40.1755 72.5119 39.6588 72.9999 39.0086 72.9999H38.4418C37.7917 72.9999 37.2749 72.5119 37.2749 71.8979ZM60.9138 65.4436C60.9138 64.8296 60.397 64.3416 59.7469 64.3416H27.3564C26.7062 64.3416 26.1895 64.8296 26.1895 65.4436C26.1895 66.0576 26.7062 66.5456 27.3564 66.5456H59.7469C60.3803 66.5614 60.9138 66.0576 60.9138 65.4436ZM34.1576 60.1067C33.5075 60.1067 32.9907 59.6186 32.9907 59.0047C32.9907 58.3907 33.5242 57.9026 34.1576 57.9026H51.7615C52.4117 57.9026 52.9285 58.3907 52.9285 59.0047C52.9285 59.6186 52.4117 60.1067 51.7615 60.1067H34.1576ZM63.3815 42.0021L64.1317 41.2937C64.5818 40.8686 64.5818 40.1602 64.1317 39.7352C63.6816 39.3101 62.9314 39.3101 62.4813 39.7352L61.7311 40.4436C61.281 40.8686 61.281 41.5771 61.7311 42.0021C61.9645 42.2225 62.2646 42.3327 62.5646 42.3327C62.848 42.317 63.1481 42.2068 63.3815 42.0021ZM67.4152 38.1924C67.1818 38.4128 66.8817 38.523 66.5816 38.523C66.2816 38.523 65.9815 38.4128 65.7648 38.1924C65.3147 37.7674 65.3147 37.059 65.7648 36.6339L66.515 35.9255C66.9651 35.5004 67.7152 35.5004 68.1653 35.9255C68.6154 36.3505 68.6154 37.0589 68.1653 37.484L67.4152 38.1924ZM65.7481 41.2937L66.4983 42.0021C66.7317 42.2225 67.0317 42.3327 67.3318 42.3327C67.6319 42.3327 67.9319 42.2225 68.1653 42.0021C68.6154 41.5771 68.6154 40.8686 68.1653 40.4436L67.4151 39.7352C66.965 39.3101 66.2149 39.3101 65.7648 39.7352C65.298 40.1602 65.298 40.8529 65.7481 41.2937ZM63.2981 38.523C62.9981 38.523 62.698 38.4128 62.4646 38.1924L61.7311 37.484C61.281 37.0589 61.281 36.3505 61.7311 35.9255C62.1812 35.5004 62.9314 35.5004 63.3815 35.9255L64.1317 36.6339C64.5818 37.059 64.5818 37.7674 64.1317 38.1924C63.8983 38.4128 63.5982 38.523 63.2981 38.523ZM50.1119 48.6459C50.3453 48.8663 50.6454 48.9765 50.9454 48.9765C51.2455 48.9765 51.5456 48.8663 51.7789 48.6459C52.229 48.2208 52.229 47.5124 51.7789 47.0873L51.5456 46.8669C51.0955 46.4419 50.3453 46.4419 49.8952 46.8669C49.4451 47.292 49.4451 48.0004 49.8952 48.4255L50.1119 48.6459ZM53.4461 51.7943L53.2128 51.5739C52.746 51.1488 52.746 50.4404 53.2294 50.0154C53.6795 49.5903 54.4297 49.5903 54.8798 50.0154L55.1132 50.2357C55.5633 50.6608 55.5633 51.3693 55.1132 51.7943C54.8798 52.0147 54.5797 52.1249 54.2797 52.1249C53.9796 52.1249 53.6795 52.0147 53.4461 51.7943ZM49.8773 51.7943C50.1107 52.0147 50.4108 52.1249 50.7108 52.1249C51.0109 52.1249 51.311 52.0147 51.5443 51.7943L51.7777 51.5739C52.2278 51.1488 52.2278 50.4404 51.7777 50.0154C51.3276 49.5903 50.5775 49.5903 50.1274 50.0154L49.894 50.2357C49.4105 50.6608 49.4105 51.3693 49.8773 51.7943ZM54.8629 48.6459C54.6296 48.8663 54.3295 48.9765 54.0294 48.9765C53.7294 48.9765 53.4293 48.8663 53.2126 48.6459C52.7625 48.2208 52.7625 47.5124 53.2126 47.0873L53.446 46.8669C53.8961 46.4419 54.6462 46.4419 55.0963 46.8669C55.5464 47.292 55.5464 48.0004 55.0963 48.4255L54.8629 48.6459ZM4.16807 27.4085C4.40145 27.6289 4.70152 27.7391 5.00158 27.7391C5.30165 27.7391 5.60172 27.6289 5.8351 27.4085C6.2852 26.9834 6.2852 26.275 5.8351 25.85L5.60172 25.6295C5.15162 25.2045 4.40144 25.2045 3.95134 25.6295C3.50124 26.0546 3.50124 26.7631 3.95134 27.1881L4.16807 27.4085ZM8.33508 30.872C8.03501 30.872 7.73495 30.7618 7.50156 30.5414L7.28484 30.321C6.83474 29.8959 6.83474 29.1875 7.28484 28.7624C7.73494 28.3374 8.48511 28.3374 8.93521 28.7624L9.1686 28.9828C9.6187 29.4079 9.6187 30.1163 9.1686 30.5414C8.93521 30.7618 8.63515 30.872 8.33508 30.872ZM4.7682 30.872C5.06827 30.872 5.36833 30.7618 5.60172 30.5414L5.8351 30.321C6.2852 29.8959 6.2852 29.1875 5.8351 28.7624C5.385 28.3374 4.63483 28.3374 4.18473 28.7624L3.95134 28.9828C3.50124 29.4079 3.50124 30.1163 3.95134 30.5414C4.16806 30.7618 4.46813 30.872 4.7682 30.872ZM8.93521 27.3928C8.70183 27.6132 8.40176 27.7234 8.1017 27.7234C7.80163 27.7234 7.50155 27.6132 7.28484 27.3928C6.83474 26.9677 6.83474 26.2592 7.28484 25.8342L7.51822 25.6138C7.96832 25.1887 8.7185 25.1887 9.1686 25.6138C9.6187 26.0389 9.6187 26.7473 9.1686 27.1723L8.93521 27.3928ZM16.2198 15.0502C16.5199 15.0502 16.82 14.94 17.0534 14.7196L17.8035 14.0112C18.2536 13.5861 18.2536 12.8776 17.8035 12.4526C17.3534 12.0275 16.6033 12.0275 16.1532 12.4526L15.403 13.161C14.9529 13.5861 14.9529 14.2945 15.403 14.7196C15.6197 14.94 15.9198 15.0502 16.2198 15.0502ZM21.0875 10.9257C20.8542 11.1461 20.5541 11.2563 20.254 11.2563C19.954 11.2563 19.6539 11.1461 19.4372 10.9257C18.9871 10.5006 18.9871 9.79217 19.4372 9.36711L20.1874 8.65866C20.6375 8.2336 21.3876 8.2336 21.8377 8.65866C22.2878 9.08372 22.2878 9.79219 21.8377 10.2172L21.0875 10.9257ZM20.1707 14.7196C20.4041 14.94 20.7041 15.0502 21.0042 15.0502C21.3043 15.0502 21.6043 14.94 21.8377 14.7196C22.2878 14.2945 22.2878 13.5861 21.8377 13.161L21.0875 12.4526C20.6374 12.0275 19.8873 12.0275 19.4372 12.4526C18.9871 12.8776 18.9871 13.5861 19.4372 14.0112L20.1707 14.7196ZM16.97 11.2563C16.67 11.2563 16.3699 11.1461 16.1365 10.9257L15.403 10.2172C14.9529 9.79219 14.9529 9.08372 15.403 8.65866C15.8531 8.2336 16.6033 8.2336 17.0534 8.65866L17.8035 9.36711C18.2536 9.79217 18.2536 10.5006 17.8035 10.9257C17.5702 11.1461 17.2701 11.2563 16.97 11.2563Z" fill="white"/>
</svg>
