<svg width="70" height="67" viewBox="0 0 70 67" fill="none" xmlns="http://www.w3.org/2000/svg">
<path fill-rule="evenodd" clip-rule="evenodd" d="M47.5981 10.6987C47.7037 10.7289 47.8093 10.7439 47.9149 10.7439C48.3673 10.7439 48.7896 10.4574 48.9253 10.0049L51.5948 1.37822C51.7758 0.820194 51.4591 0.232 50.901 0.0510202C50.343 -0.12996 49.7548 0.186742 49.5738 0.744765L46.9044 9.37149C46.7234 9.92951 47.0401 10.5328 47.5981 10.6987ZM11.8547 55.5365C10.6633 55.5365 9.48689 55.3555 8.3256 54.9936C5.30926 54.0585 2.85093 52.0074 1.35784 49.2625C-1.67358 43.5164 0.543436 36.3827 6.28956 33.3513L14.4186 29.0681C21.1903 25.4938 26.4085 18.8428 29.5908 13.896C33.0746 8.48163 34.9448 3.86665 34.9598 3.8214C35.1257 3.44436 35.4877 3.17289 35.8949 3.15781C36.3172 3.12764 36.6943 3.35386 36.8903 3.71582L44.5971 18.3451C48.0055 16.9726 51.972 18.3752 53.7215 21.6932C55.4709 25.0112 54.3851 29.0832 51.3235 31.1042L59.0302 45.7334C59.2263 46.0954 59.1961 46.5328 58.9397 46.8646C58.6984 47.1963 58.2761 47.3471 57.8689 47.2566C57.8237 47.2416 52.9523 46.1708 46.5275 45.9747C40.6457 45.7938 32.215 46.3367 25.4282 49.911L24.8702 50.1976L24.3725 63.575C24.3122 65.2793 23.0906 66.5914 21.4014 66.7723C21.2657 66.7874 21.1299 66.7874 21.0093 66.7874C19.486 66.7874 18.2041 65.8071 17.812 64.2839L15.3989 54.9785C14.2527 55.3555 13.0612 55.5365 11.8547 55.5365ZM21.1752 64.6458C21.3562 64.6307 22.2158 64.4799 22.2611 63.4846L22.7286 51.3136L17.3746 54.1339L19.8631 63.741C20.1195 64.7062 20.9942 64.6609 21.1752 64.6458ZM26.7554 46.9248L17.6461 29.6261C17.2238 29.8976 16.8015 30.154 16.3641 30.4104L25.383 47.5432L25.3831 47.5432C25.8355 47.332 26.2879 47.1209 26.7554 46.9248ZM51.8664 22.6584C51.233 21.4519 50.1622 20.5621 48.8501 20.1549C47.7793 19.8231 46.6482 19.8532 45.6226 20.2152L50.3432 29.1888C52.3792 27.7259 53.073 24.9358 51.8664 22.6584ZM31.4307 14.9818C29.3344 18.2696 27.0721 21.1804 24.7194 23.6689C23.0001 25.4938 21.2204 27.0773 19.3955 28.4045L28.7462 46.1557C30.8878 45.4167 33.1953 44.8436 35.6687 44.4515C39.047 43.9236 42.742 43.7125 46.6331 43.8331C50.69 43.9689 54.0683 44.4062 56.1496 44.7531L36.0608 6.62657C35.171 8.52687 33.6176 11.5734 31.4307 14.9818ZM7.31513 35.2064C5.03779 36.3978 3.36372 38.4188 2.59455 40.8922C1.82538 43.3656 2.06669 45.9747 3.27322 48.237C4.46467 50.5143 6.48563 52.1884 8.95902 52.9575C11.4324 53.7267 14.0416 53.4854 16.3189 52.294L23.5128 48.5084L14.5091 31.4209L7.31513 35.2064ZM25.8653 31.3154C25.6692 31.4813 25.4128 31.5717 25.1715 31.5717C24.8699 31.5717 24.5833 31.4511 24.3722 31.2098C23.9951 30.7724 24.0404 30.0937 24.4778 29.7167C27.6147 27.002 30.616 23.4879 33.391 19.2802C33.7077 18.7975 34.3713 18.6618 34.854 18.9785C35.3366 19.2952 35.4723 19.9588 35.1556 20.4414C32.275 24.8151 29.138 28.4649 25.8653 31.3154ZM8.02344 42.325C8.30999 42.325 8.59653 42.2043 8.80767 41.9781C9.56176 41.1636 10.4365 40.485 11.4168 39.9571L13.1512 39.0372C13.664 38.7657 13.8751 38.1172 13.5886 37.6044C13.3171 37.0916 12.6686 36.8804 12.1558 37.167L10.4214 38.087C9.21489 38.7204 8.14409 39.5499 7.23919 40.5453C6.84706 40.9827 6.87722 41.6463 7.29951 42.0384C7.51065 42.2345 7.76705 42.325 8.02344 42.325ZM60.7344 19.1897C60.5685 19.2651 60.4026 19.3103 60.2367 19.3103C59.8596 19.3103 59.4977 19.0992 59.3016 18.7523C59.0151 18.2396 59.2262 17.5911 59.739 17.3196L67.7323 13.1118C68.245 12.8252 68.8935 13.0364 69.165 13.5492C69.4516 14.062 69.2404 14.7104 68.7277 14.9819L60.7344 19.1897ZM60.6285 32.2504L69.2552 34.9199C69.8132 35.0858 70.13 35.6891 69.949 36.2471C69.8132 36.6995 69.391 36.9861 68.9385 36.9861C68.8329 36.9861 68.7273 36.971 68.6218 36.9408L59.995 34.2714C59.437 34.0904 59.1354 33.5022 59.3013 32.9442C59.4823 32.3862 60.0705 32.0845 60.6285 32.2504ZM53.0122 15.8567C53.1932 15.9925 53.4044 16.0527 53.6155 16.0527C53.9473 16.0527 54.2791 15.9019 54.4902 15.6003L57.3557 11.5132C57.6875 11.0306 57.582 10.367 57.0994 10.0352C56.6167 9.70337 55.9532 9.80896 55.6214 10.2916L52.7558 14.3787C52.4089 14.8613 52.5296 15.5249 53.0122 15.8567ZM64.0976 27.0924L59.1508 26.4741C58.5777 26.4137 58.1554 25.8708 58.2309 25.2977C58.3063 24.7095 58.8492 24.3023 59.4223 24.3777L64.3691 24.9961C64.9573 25.0715 65.3645 25.5993 65.2891 26.1875C65.2137 26.7154 64.7612 27.1075 64.2334 27.1075C64.2107 27.1075 64.1881 27.1037 64.1655 27.1C64.1429 27.0962 64.1203 27.0924 64.0976 27.0924Z" fill="white"/>
</svg>
