<svg width="47" height="60" viewBox="0 0 47 60" fill="none" xmlns="http://www.w3.org/2000/svg">
<path d="M21.2166 26.1874C21.7918 26.3201 22.4187 26.3865 23.0676 26.3865C23.7166 26.3865 24.3434 26.3201 24.9187 26.1874C25.398 26.0767 25.693 25.6048 25.5824 25.1254C25.4718 24.6461 24.9998 24.3511 24.5204 24.4617C23.6355 24.6682 22.4924 24.6682 21.6148 24.4617C21.1429 24.3511 20.6635 24.6461 20.5529 25.1254C20.4423 25.5974 20.7372 26.0767 21.2166 26.1874Z" fill="white"/>
<path d="M17.3376 21.5854C17.3376 22.1975 17.8317 22.6916 18.4438 22.6916C19.0559 22.6916 19.55 22.1975 19.55 21.5854C19.55 20.9733 19.0559 20.4792 18.4438 20.4792C17.8317 20.4792 17.3376 20.9807 17.3376 21.5854ZM19.1076 21.5854C19.1076 21.9542 18.8126 22.2492 18.4438 22.2492C18.0751 22.2492 17.7801 21.9542 17.7801 21.5854C17.7801 21.2167 18.0751 20.9217 18.4438 20.9217C18.8126 20.9217 19.1076 21.2241 19.1076 21.5854Z" fill="white"/>
<path d="M18.09 17.9866C18.562 18.0604 19.0266 17.7285 19.0929 17.2418C19.1667 16.7551 18.8348 16.3052 18.3481 16.2388C16.6372 15.9881 15.4867 16.8141 15.3614 16.9026C14.9779 17.1975 14.9041 17.7359 15.1844 18.1267C15.354 18.3627 15.6269 18.4881 15.8997 18.4881C16.0767 18.4881 16.2611 18.4365 16.4159 18.3185C16.4528 18.2964 17.1092 17.8391 18.09 17.9866Z" fill="white"/>
<path d="M18.5326 28.5178C18.1786 28.857 18.1639 29.4101 18.4957 29.7715C18.6432 29.9263 20.0001 31.2685 23.0459 31.2685C26.0916 31.2685 27.4485 29.9263 27.596 29.7715C27.9279 29.4175 27.9131 28.8718 27.5665 28.5399C27.2199 28.2007 26.6668 28.208 26.3202 28.5473C26.2833 28.5842 25.332 29.4986 23.0459 29.4986C20.7819 29.4986 19.8232 28.5989 19.7715 28.5473C19.4397 28.2007 18.8866 28.1859 18.5326 28.5178Z" fill="white"/>
<path d="M27.6769 22.6916C28.289 22.6916 28.7831 22.1975 28.7831 21.5854C28.7831 20.9733 28.289 20.4792 27.6769 20.4792C27.0648 20.4792 26.5707 20.9733 26.5707 21.5854C26.5707 22.1975 27.0648 22.6916 27.6769 22.6916ZM27.6769 20.9217C28.0456 20.9217 28.3406 21.2167 28.3406 21.5854C28.3406 21.9542 28.0456 22.2492 27.6769 22.2492C27.3081 22.2492 27.0131 21.9542 27.0131 21.5854C27.0131 21.2167 27.3081 20.9217 27.6769 20.9217Z" fill="white"/>
<path d="M23.1932 32.4336H22.618C22.1312 32.4336 21.733 32.8318 21.733 33.3186C21.733 33.8053 22.1312 34.2035 22.618 34.2035H23.1932C23.6799 34.2035 24.0782 33.8053 24.0782 33.3186C24.0782 32.8318 23.6873 32.4336 23.1932 32.4336Z" fill="white"/>
<path d="M10.3102 58.0606V51.6225C10.3102 51.1358 9.91197 50.7375 9.42525 50.7375C8.93852 50.7375 8.54028 51.1358 8.54028 51.6225V58.0606C8.54028 58.5473 8.93852 58.9455 9.42525 58.9455C9.91197 58.9455 10.3102 58.5473 10.3102 58.0606Z" fill="white"/>
<path d="M28.0311 17.9867C29.0046 17.8392 29.6536 18.2891 29.6978 18.3186C29.8527 18.4366 30.037 18.4956 30.2214 18.4956C30.4869 18.4956 30.7524 18.3776 30.9294 18.1416C31.2244 17.7507 31.1506 17.1976 30.7598 16.9027C30.6344 16.8068 29.4766 15.9808 27.773 16.2389C27.2863 16.3127 26.9545 16.7625 27.0282 17.2419C27.0946 17.7212 27.5444 18.0531 28.0311 17.9867Z" fill="white"/>
<path d="M34.9779 37.8171C35 37.5664 35.0074 37.4041 35.0074 37.3599C35.0147 37.0206 34.8304 36.7035 34.528 36.5487C34.0782 36.3201 32.9425 35.7375 32.0575 35.826C31.8289 34.9484 31.7035 33.8938 31.6888 33.1711C33.2965 31.1504 34.587 28.7242 35.4056 26.2906C37.5147 25.1549 38.5103 23.149 38.2006 20.59C38.1416 20.0811 37.8908 19.6239 37.5147 19.292C37.8761 16.9764 38.8791 8.0531 33.4882 5.15487C32.6032 3.28909 31.0029 1.81416 29.0708 1.08407C27.1608 0.368732 25.1475 0 23.0826 0C23.0752 0 23.0678 0 23.0678 0C23.0605 0 23.0531 0 23.0531 0C20.9882 0 18.9749 0.361358 17.0649 1.08407C15.1254 1.81416 13.5324 3.28171 12.6475 5.15487C7.25663 8.0531 8.25959 16.9764 8.62094 19.292C8.24484 19.6239 7.9941 20.0811 7.92773 20.5973C7.61799 23.149 8.60618 25.1549 10.7006 26.2906C11.5118 28.7168 12.795 31.1357 14.3953 33.1563C14.3879 33.8791 14.2625 34.9484 14.0265 35.8333C13.1416 35.7448 12.0059 36.3274 11.556 36.556C11.2537 36.7109 11.0693 37.028 11.0767 37.3673C11.0767 37.4041 11.0841 37.5737 11.1062 37.8245C7.64749 38.6873 2.27876 41.1136 0.501469 47.9499C0.162236 49.2478 0 50.6785 0 52.3304V58.0678C0 58.5546 0.398217 58.9528 0.884942 58.9528C1.37167 58.9528 1.76991 58.5546 1.76991 58.0678V52.3304C1.76991 50.8333 1.9174 49.5501 2.21239 48.3997C3.68732 42.7434 7.89085 40.472 11.4233 39.5796C12.028 41.9838 13.6799 45.7006 18.2522 47.4041C18.3555 47.441 18.4587 47.4631 18.5619 47.4631C18.7242 47.4631 18.879 47.4115 19.0192 47.3304L20.5826 48.6283C20.6195 48.6578 20.6711 48.6799 20.708 48.7021L19.0634 55.1475C18.997 55.4203 19.056 55.708 19.233 55.9218L22.2566 59.6681C22.4336 59.882 22.6844 60 22.9425 60C22.972 60 23.0015 59.9852 23.031 59.9852C23.0605 59.9852 23.09 60 23.1194 60C23.3776 60 23.6357 59.8894 23.8053 59.6681L26.8289 55.9218C27.0059 55.708 27.0649 55.4203 26.9985 55.1475L25.354 48.7021C25.3982 48.6799 25.4425 48.6578 25.4793 48.6283L27.0428 47.3304C27.1829 47.4189 27.3377 47.4631 27.5 47.4631C27.6032 47.4631 27.7065 47.4484 27.8097 47.4041C32.382 45.7006 34.0339 41.9838 34.6386 39.5796C38.1711 40.472 42.3746 42.7434 43.8495 48.3997C44.1519 49.5501 44.292 50.8407 44.292 52.3304V58.0678C44.292 58.5546 44.6902 58.9528 45.177 58.9528C45.6637 58.9528 46.0619 58.5546 46.0619 58.0678V52.3304C46.0619 50.6858 45.8997 49.2478 45.5605 47.9499C43.8053 41.1136 38.4366 38.6799 34.9779 37.8171ZM23.0457 41.9764C18.9307 41.969 16.4085 38.7832 15.4277 37.2345C15.708 36.556 15.8923 35.7153 16.0103 34.9263C18.0605 36.8953 20.4793 38.1858 23.0531 38.1858C25.6195 38.1858 28.031 36.9027 30.0737 34.941C30.1917 35.7301 30.3761 36.556 30.6563 37.2345C29.6829 38.7906 27.1755 41.969 23.0457 41.9764ZM13.7021 6.60029C13.8938 6.50442 14.0487 6.34956 14.1372 6.15044C14.8009 4.58702 16.0988 3.34071 17.6843 2.74336C19.3953 2.10177 21.1947 1.77729 23.0457 1.77729C23.0531 1.77729 23.0605 1.77729 23.0605 1.77729C23.0678 1.77729 23.0752 1.77729 23.0752 1.77729C24.9262 1.77729 26.7257 2.10177 28.4366 2.74336C30.0295 3.34071 31.3201 4.57965 31.9838 6.15044C32.0723 6.34956 32.2198 6.5118 32.4189 6.60029C36.851 8.70944 36.1136 16.4823 35.7817 18.8201C35.7375 18.8274 35.6932 18.8348 35.649 18.8496C34.9557 18.0015 34.4321 16.9911 34.1519 15.8702C33.8791 14.7714 33.3333 13.1563 32.2861 11.6962C32.0133 11.3201 31.4897 11.2168 31.0914 11.4676C28.4218 13.1563 24.2257 12.1903 20.8555 11.4159C17.5664 10.6563 14.9705 10.059 13.7905 11.6962C12.9498 12.8614 12.323 14.2699 11.9248 15.8702C11.6519 16.9838 11.1283 17.9941 10.4351 18.8422C10.3982 18.8348 10.3687 18.8274 10.3318 18.8201C10.0074 16.497 9.2699 8.71681 13.7021 6.60029ZM11.7994 24.8599C10.1622 24.0929 9.4469 22.7286 9.67551 20.8112C9.69026 20.6785 9.77137 20.6195 9.82299 20.59C9.88199 20.5605 9.9705 20.5383 10.0737 20.59L10.3097 20.708C10.6932 20.8997 11.1357 20.7743 11.3938 20.4499C11.4233 20.4277 11.4528 20.413 11.4749 20.3909C12.5147 19.2699 13.2669 17.8614 13.6504 16.3127C13.8864 15.3614 14.351 13.9749 15.236 12.7507C15.7301 12.0723 18.3555 12.677 20.4646 13.1637C23.8791 13.9454 28.0605 14.9115 31.2758 13.4071C31.8879 14.4543 32.2419 15.5383 32.4336 16.3201C32.8171 17.8687 33.5693 19.2773 34.6091 20.3982C34.6386 20.4277 34.6755 20.4425 34.7124 20.472C34.9705 20.7891 35.4056 20.9145 35.7891 20.7227L36.0398 20.5973C36.1431 20.5457 36.2316 20.5678 36.2906 20.5973C36.3422 20.6268 36.4233 20.6858 36.4381 20.8186C36.6667 22.7434 35.9513 24.115 34.2994 24.8746C34.0708 24.9779 33.9012 25.177 33.8274 25.413C32.146 30.7522 27.795 36.4307 23.0457 36.4307C18.2891 36.4307 13.9454 30.7522 12.264 25.413C12.1976 25.1622 12.028 24.9631 11.7994 24.8599ZM12.8908 37.8761C13.2079 37.736 13.4366 37.6622 13.5914 37.6327C14.2994 38.9086 16.5487 42.3525 20.5531 43.4218C19.5354 44.1224 18.7389 44.9558 18.2817 45.4867C13.9897 43.5693 13.0826 39.3953 12.8908 37.8761ZM23.0457 57.7802L20.8997 55.1254L22.5147 48.8053H23.0457C23.0457 48.8053 23.0457 48.8053 23.0531 48.8053C23.0605 48.8053 23.0531 48.8053 23.0605 48.8053H23.5914L25.2065 55.1254L23.0457 57.7802ZM24.6165 47.0354H23.0457C23.0457 47.0354 23.0457 47.0354 23.0383 47.0354C23.031 47.0354 23.0383 47.0354 23.031 47.0354H21.4602L20.2139 46.0029C20.9366 45.2876 21.9543 44.4838 23.0457 44.1224C24.174 44.4985 25.1696 45.3171 25.8555 46.0029L24.6165 47.0354ZM27.8023 45.4867C27.3451 44.9484 26.5487 44.115 25.531 43.4218C29.5428 42.3451 31.7847 38.9086 32.4926 37.6327C32.6475 37.6696 32.8687 37.7434 33.1932 37.8761C33.0015 39.3953 32.0944 43.5693 27.8023 45.4867Z" fill="white"/>
</svg>
