<svg width="40" height="55" viewBox="0 0 40 55" fill="none" xmlns="http://www.w3.org/2000/svg">
<path d="M35.6858 39.5229C34.3363 38.7043 32.4779 38.3503 30.8407 38.0406C29.8746 37.8562 28.9602 37.6866 28.4218 37.458C28.2743 37.3768 28.149 37.3031 28.0605 37.2293C27.6475 36.9122 27.3451 36.3223 27.1018 35.6512C27.795 35.7102 28.4882 35.7544 29.1519 35.7544C33.0162 35.7544 36.1062 34.84 36.261 34.7957C36.5634 34.7072 36.792 34.4565 36.8658 34.1541C36.9395 33.8518 36.8437 33.5273 36.615 33.306C34.292 31.0863 35.1254 26.9196 35.7301 23.8813L35.8186 23.4314C35.9661 22.6866 36.1947 21.2854 36.2832 20.4668C36.2905 20.4152 36.2758 20.3636 36.2684 20.3193C36.8215 18.9476 36.6888 17.5686 36.5339 16.7869C36.4823 16.514 36.3717 16.2633 36.2242 16.042C36.2242 15.9978 36.2463 15.9535 36.2389 15.9019C36.0398 13.8075 35.5678 11.7795 34.8377 9.88423C30.6932 -0.86061 20.9071 -0.0494022 20.0221 0.0538427C19.1445 -0.0494022 9.35103 -0.86061 5.20649 9.88423C4.4764 11.7795 4.00443 13.8075 3.80531 15.9019V15.9093C3.61357 16.16 3.46607 16.455 3.39969 16.7869C3.24483 17.5686 3.14158 18.7559 3.53243 19.9506C3.5988 20.1497 3.67992 20.3488 3.76104 20.5332C3.85691 21.3518 4.06341 22.6276 4.20353 23.3355L4.29202 23.7854C4.89674 26.8237 5.73007 30.9904 3.41444 33.2102C3.18582 33.424 3.08995 33.7485 3.1637 34.0583C3.23745 34.368 3.46607 34.6114 3.76843 34.6999C3.92329 34.7441 7.02064 35.6659 10.8702 35.6659C11.4749 35.6659 12.1018 35.6291 12.736 35.5774C12.4926 36.278 12.1829 36.9049 11.7478 37.2367C11.6519 37.3105 11.5265 37.3842 11.3864 37.4653C10.8481 37.694 9.93363 37.8636 8.96755 38.0479C7.33039 38.3577 5.47197 38.7117 4.12242 39.5302C1.41593 41.1674 0 44.8326 0 47.6055V53.4167C0 53.9034 0.398217 54.3016 0.884942 54.3016C1.37167 54.3016 1.76991 53.9034 1.76991 53.4167V47.6055C1.76991 44.9948 3.17108 42.1704 5.03686 41.042C6.11356 40.3931 7.80235 40.0686 9.2994 39.7883C9.96311 39.663 10.5752 39.545 11.1136 39.4049C11.8068 41.7943 14.115 47.7677 19.8894 47.7677C25.6637 47.7677 27.9793 41.7869 28.6652 39.3975C29.2035 39.5376 29.8156 39.6482 30.4793 39.781C31.969 40.0612 33.6652 40.3857 34.7345 41.0347C36.6003 42.163 38.0015 44.9875 38.0015 47.5981V53.4093C38.0015 53.896 38.3997 54.2943 38.8864 54.2943C39.3731 54.2943 39.7714 53.896 39.7714 53.4093V47.5981C39.8083 44.8252 38.3923 41.16 35.6858 39.5229ZM8.1932 22.3179C8.11946 22.0597 7.92035 21.8459 7.66961 21.75C6.38643 21.2412 5.56047 20.4521 5.22861 19.4049C4.95575 18.5642 5.03686 17.7013 5.14748 17.1261C5.17698 16.9639 5.34659 16.8533 5.51621 16.868L6.4233 16.9639C7.55162 17.281 17.4484 19.7441 23.8274 9.55236C24.882 11.75 27.4041 15.2603 33.09 16.9344C33.2006 16.9712 33.3186 16.986 33.4439 16.9712H33.4513L34.4322 16.868C34.6018 16.8459 34.7714 16.9639 34.8009 17.1261C35.1032 18.66 34.9115 20.7102 32.2788 21.75C32.028 21.8533 31.8363 22.0597 31.7552 22.3179C30.0442 28.0774 25.4425 33.9108 19.9705 33.9108C14.4985 33.9108 9.90412 28.0774 8.1932 22.3179ZM26.6298 33.8297H26.6224C26.5855 33.6527 26.5487 33.483 26.5192 33.3208C29.2847 31.3149 31.8436 27.9963 33.3407 23.2249C33.6431 23.0848 33.9012 22.9373 34.1519 22.7824C34.1298 22.8931 34.115 22.9963 34.0929 23.0922L34.0044 23.542C33.4071 26.5509 32.6106 30.5406 34.4395 33.424C32.7802 33.7633 29.7714 34.2131 26.6298 33.8297ZM19.8599 1.80163C19.9189 1.809 19.9779 1.79425 20.0369 1.78687C20.0959 1.79425 20.1549 1.809 20.2139 1.80163C20.5826 1.75 29.3953 0.651182 33.2006 10.5111C33.7611 11.9712 34.1445 13.5125 34.3731 15.1055C34.3363 15.1055 34.2994 15.1055 34.2551 15.1055L33.4587 15.1866C26.2168 12.9889 24.9189 7.5096 24.8746 7.28098C24.7935 6.91225 24.4985 6.63939 24.1298 6.58777C23.7611 6.54352 23.3997 6.72788 23.2227 7.05974C17.3009 18.4683 7.30826 15.3857 6.8879 15.2456C6.82891 15.2235 6.76253 15.2161 6.70354 15.2087L5.71534 15.1055C5.93658 13.5125 6.32006 11.9639 6.8879 10.5111C10.6785 0.651182 19.4838 1.75 19.8599 1.80163ZM5.61208 33.3208C7.44099 30.4373 6.64453 26.4476 6.04718 23.4388L5.95869 22.9889C5.95132 22.9447 5.94394 22.9004 5.92919 22.8488C6.15043 22.9816 6.37167 23.1069 6.6224 23.2175C8.1047 27.9299 10.6195 31.219 13.3407 33.2323C13.3112 33.3945 13.2743 33.5642 13.2374 33.7485C10.177 34.1099 7.2345 33.66 5.61208 33.3208ZM19.9189 45.9978C15.2138 45.9978 13.2891 40.5111 12.7802 38.6821C12.8023 38.6674 12.8319 38.6527 12.854 38.6305C14.0929 37.6792 14.6165 35.7913 14.941 34.2574C16.6666 35.2013 18.4144 35.6733 19.9852 35.6733C21.5265 35.6733 23.2301 35.2234 24.9189 34.3164C25.2433 35.8429 25.7669 37.6866 26.9911 38.6305C27.0133 38.6453 27.0428 38.6674 27.0649 38.6821C26.5487 40.5111 24.6239 45.9978 19.9189 45.9978Z" fill="white"/>
<path d="M14.5058 18.2839C13.879 18.2839 13.3701 18.7928 13.3701 19.4196C13.3701 20.0465 13.879 20.5553 14.5058 20.5553C15.1327 20.5553 15.6415 20.0465 15.6415 19.4196C15.6415 18.7928 15.1327 18.2839 14.5058 18.2839ZM14.5058 20.0538C14.1592 20.0538 13.8716 19.7736 13.8716 19.4196C13.8716 19.0656 14.1518 18.7854 14.5058 18.7854C14.8598 18.7854 15.14 19.0656 15.14 19.4196C15.14 19.7736 14.8524 20.0538 14.5058 20.0538Z" fill="white"/>
<path d="M25.0816 20.5553C25.7084 20.5553 26.2173 20.0465 26.2173 19.4196C26.2173 18.7928 25.7084 18.2839 25.0816 18.2839C24.4548 18.2839 23.9459 18.7928 23.9459 19.4196C23.9459 20.0465 24.4474 20.5553 25.0816 20.5553ZM25.0816 18.7854C25.4282 18.7854 25.7158 19.0656 25.7158 19.4196C25.7158 19.7736 25.4356 20.0538 25.0816 20.0538C24.7276 20.0538 24.4474 19.7736 24.4474 19.4196C24.4474 19.0656 24.7276 18.7854 25.0816 18.7854Z" fill="white"/>
<path d="M22.8689 29.2058L21.5268 28.0553C21.5268 28.0553 21.5415 28.0332 21.5858 27.9963C21.5784 27.9963 21.1949 28.2987 19.9854 28.2987C18.776 28.2987 18.3852 27.9963 18.3778 27.9963C18.422 28.0332 18.4368 28.0553 18.4368 28.0553L17.0946 29.2058C17.2716 29.4049 17.9869 30.0686 19.9854 30.0686C21.9766 30.0686 22.6993 29.4049 22.8689 29.2058Z" fill="white"/>
<path d="M19.3369 24.287C19.5656 24.3386 19.8163 24.3681 20.0744 24.3681C20.3325 24.3681 20.5833 24.3386 20.8119 24.287C21.2912 24.1764 21.5862 23.697 21.4756 23.2251C21.365 22.7457 20.893 22.4507 20.4136 22.5613C20.1924 22.613 19.8679 22.5908 19.7425 22.5613C19.2706 22.4507 18.7912 22.7457 18.6806 23.2177C18.57 23.697 18.865 24.1764 19.3369 24.287Z" fill="white"/>
<path d="M29.5653 50.5037C29.0785 50.5037 28.6803 50.9019 28.6803 51.3886V53.4093C28.6803 53.896 29.0785 54.2942 29.5653 54.2942C30.052 54.2942 30.4502 53.896 30.4502 53.4093V51.3886C30.4502 50.8945 30.0594 50.5037 29.5653 50.5037Z" fill="white"/>
<path d="M25.133 16.8608C25.5312 16.9271 25.9 17.0746 26.2245 17.3032C26.3793 17.4139 26.5563 17.4655 26.7333 17.4655C27.0135 17.4655 27.2864 17.3327 27.456 17.0894C27.7362 16.6911 27.6478 16.138 27.2495 15.8578C26.7038 15.467 26.0843 15.2162 25.4132 15.113C24.9265 15.0392 24.4767 15.3637 24.4029 15.8504C24.3218 16.3298 24.6463 16.787 25.133 16.8608Z" fill="white"/>
<circle cx="14.7496" cy="19.1741" r="1.47493" fill="white"/>
<circle cx="25.074" cy="19.1741" r="1.47493" fill="white"/>
</svg>
